<svg width="82" height="74" viewBox="0 0 82 74" fill="none" xmlns="http://www.w3.org/2000/svg">
<path d="M0.101717 62.4974C-0.127135 60.8955 0.101697 14.7594 0.101697 14.7594V13.1412C0.101695 9.09562 4.14729 24.4933 7.38376 26.0871C8.14795 26.4634 11.3612 26.5215 13.0476 24.4689C18.5035 17.8284 20.7755 11.6633 21.9479 9.90474C23.5662 7.47738 27.6117 -1.423 31.6573 0.195291C34.0847 1.16627 35.7029 5.85913 36.512 11.523C38.3463 24.3638 36.512 59.261 36.512 59.261C36.512 59.261 34.8938 49.5516 30.8482 47.1242C29.7644 46.4739 28.6352 46.6125 27.6117 47.1242C25.9935 47.9333 15.9277 70.8068 9.81115 73.016C3.69461 75.2251 0.910836 68.1613 0.101717 62.4974Z" fill="#5C6F63"/>
<path d="M22.4282 62.4974C22.1993 60.8955 22.4282 14.7594 22.4282 14.7594V13.1412C22.4282 9.09562 26.4738 24.4933 29.7102 26.0871C30.4744 26.4634 33.6876 26.5215 35.3741 24.4689C40.8299 17.8284 43.102 11.6633 44.2744 9.90474C45.8926 7.47738 49.9382 -1.423 53.9838 0.195291C56.4111 1.16627 58.0294 5.85913 58.8385 11.523C60.6728 24.3638 58.8385 59.261 58.8385 59.261C58.8385 59.261 57.2203 49.5516 53.1747 47.1242C52.0909 46.4739 50.9617 46.6125 49.9382 47.1242C48.32 47.9333 38.2542 70.8068 32.1376 73.016C26.0211 75.2251 23.2373 68.1613 22.4282 62.4974Z" fill="#99ABA0"/>
<path d="M44.7744 62.4974C44.5456 60.8955 44.7744 14.7594 44.7744 14.7594V13.1412C44.7744 9.09562 48.82 24.4933 52.0565 26.0871C52.8207 26.4634 56.0339 26.5215 57.7203 24.4689C63.1762 17.8284 65.4483 11.6633 66.6207 9.90474C68.2389 7.47738 72.2845 -1.423 76.33 0.195291C78.7574 1.16627 80.3757 5.85913 81.1847 11.523C83.0191 24.3638 81.1847 59.261 81.1847 59.261C81.1847 59.261 79.5665 49.5516 75.5209 47.1242C74.4371 46.4739 73.3079 46.6125 72.2844 47.1242C70.6662 47.9333 60.6004 70.8068 54.4839 73.016C48.3673 75.2251 45.5836 68.1613 44.7744 62.4974Z" fill="#BCD2C5"/>
</svg>
