<svg width="691" height="139" viewBox="0 0 691 139" fill="none" xmlns="http://www.w3.org/2000/svg">
<path d="M135.049 54.8848C135.049 56.8704 134.788 58.7096 134.268 60.4023C133.779 62.0625 133.079 63.5599 132.168 64.8945C131.257 66.2292 130.15 67.401 128.848 68.4102C127.578 69.4193 126.13 70.2656 124.502 70.9492C122.907 71.6328 121.182 72.1536 119.326 72.5117C117.503 72.8372 115.404 73 113.027 73H96.5234C95.7747 73 95.0586 72.7559 94.375 72.2676C93.724 71.7467 93.3984 70.8516 93.3984 69.582V13.2344C93.3984 11.9648 93.724 11.0859 94.375 10.5977C95.0586 10.0768 95.7747 9.81641 96.5234 9.81641H110.879C114.655 9.81641 117.747 10.1745 120.156 10.8906C122.565 11.6068 124.567 12.6484 126.162 14.0156C127.79 15.3828 129.01 17.0592 129.824 19.0449C130.638 21.0306 131.045 23.2767 131.045 25.7832C131.045 27.2806 130.866 28.7129 130.508 30.0801C130.15 31.4473 129.613 32.7168 128.896 33.8887C128.213 35.028 127.334 36.0534 126.26 36.9648C125.218 37.8763 124.014 38.625 122.646 39.2109C124.372 39.5365 125.983 40.1387 127.48 41.0176C128.978 41.8639 130.28 42.9544 131.387 44.2891C132.526 45.6237 133.421 47.1862 134.072 48.9766C134.723 50.7669 135.049 52.7363 135.049 54.8848ZM122.402 26.6133C122.402 25.0833 122.191 23.6999 121.768 22.4629C121.344 21.2259 120.677 20.1842 119.766 19.3379C118.854 18.459 117.666 17.7917 116.201 17.3359C114.736 16.8802 112.799 16.6523 110.391 16.6523H101.699V37.1113H111.27C113.451 37.1113 115.208 36.8346 116.543 36.2812C117.878 35.6953 118.984 34.9303 119.863 33.9863C120.742 33.0098 121.377 31.8867 121.768 30.6172C122.191 29.3151 122.402 27.9805 122.402 26.6133ZM126.211 55.373C126.211 53.485 125.902 51.8249 125.283 50.3926C124.697 48.9603 123.818 47.7559 122.646 46.7793C121.507 45.8027 120.059 45.0703 118.301 44.582C116.576 44.0612 114.395 43.8008 111.758 43.8008H101.699V66.0664H113.906C115.827 66.0664 117.503 65.8385 118.936 65.3828C120.368 64.9271 121.621 64.2598 122.695 63.3809C123.802 62.4694 124.665 61.3464 125.283 60.0117C125.902 58.6771 126.211 57.1309 126.211 55.373Z" fill="#515151"/>
<path d="M154.922 71.7793C154.922 72.0397 154.857 72.2676 154.727 72.4629C154.596 72.6257 154.385 72.7721 154.092 72.9023C153.799 73.0326 153.392 73.1302 152.871 73.1953C152.35 73.2604 151.683 73.293 150.869 73.293C150.088 73.293 149.437 73.2604 148.916 73.1953C148.395 73.1302 147.972 73.0326 147.646 72.9023C147.354 72.7721 147.142 72.6257 147.012 72.4629C146.914 72.2676 146.865 72.0397 146.865 71.7793V6.54492C146.865 6.28451 146.914 6.05664 147.012 5.86133C147.142 5.66602 147.354 5.50326 147.646 5.37305C147.972 5.24284 148.395 5.14518 148.916 5.08008C149.437 5.01497 150.088 4.98242 150.869 4.98242C151.683 4.98242 152.35 5.01497 152.871 5.08008C153.392 5.14518 153.799 5.24284 154.092 5.37305C154.385 5.50326 154.596 5.66602 154.727 5.86133C154.857 6.05664 154.922 6.28451 154.922 6.54492V71.7793Z" fill="#515151"/>
<path d="M207.461 71.7793C207.461 72.0397 207.396 72.2676 207.266 72.4629C207.168 72.6257 206.973 72.7721 206.68 72.9023C206.387 73.0326 205.996 73.1302 205.508 73.1953C205.052 73.2604 204.482 73.293 203.799 73.293C203.05 73.293 202.432 73.2604 201.943 73.1953C201.488 73.1302 201.113 73.0326 200.82 72.9023C200.56 72.7721 200.381 72.6257 200.283 72.4629C200.186 72.2676 200.137 72.0397 200.137 71.7793V65.9688C197.63 68.7357 195.156 70.7539 192.715 72.0234C190.273 73.293 187.799 73.9277 185.293 73.9277C182.363 73.9277 179.889 73.4395 177.871 72.4629C175.885 71.4863 174.274 70.168 173.037 68.5078C171.8 66.8151 170.905 64.862 170.352 62.6484C169.831 60.4023 169.57 57.6842 169.57 54.4941V27.834C169.57 27.5736 169.619 27.362 169.717 27.1992C169.847 27.0039 170.075 26.8411 170.4 26.7109C170.726 26.5482 171.149 26.4505 171.67 26.418C172.191 26.3529 172.842 26.3203 173.623 26.3203C174.404 26.3203 175.055 26.3529 175.576 26.418C176.097 26.4505 176.504 26.5482 176.797 26.7109C177.122 26.8411 177.35 27.0039 177.48 27.1992C177.611 27.362 177.676 27.5736 177.676 27.834V53.4199C177.676 55.9915 177.855 58.0586 178.213 59.6211C178.604 61.151 179.173 62.4694 179.922 63.5762C180.703 64.6504 181.68 65.4967 182.852 66.1152C184.023 66.7012 185.391 66.9941 186.953 66.9941C188.971 66.9941 190.973 66.278 192.959 64.8457C194.977 63.4134 197.109 61.3138 199.355 58.5469V27.834C199.355 27.5736 199.404 27.362 199.502 27.1992C199.632 27.0039 199.86 26.8411 200.186 26.7109C200.511 26.5482 200.918 26.4505 201.406 26.418C201.927 26.3529 202.594 26.3203 203.408 26.3203C204.189 26.3203 204.84 26.3529 205.361 26.418C205.882 26.4505 206.289 26.5482 206.582 26.7109C206.875 26.8411 207.087 27.0039 207.217 27.1992C207.38 27.362 207.461 27.5736 207.461 27.834V71.7793Z" fill="#515151"/>
<path d="M259.854 47.9023C259.854 49.1719 259.528 50.0833 258.877 50.6367C258.258 51.1576 257.542 51.418 256.729 51.418H227.92C227.92 53.8594 228.164 56.0566 228.652 58.0098C229.141 59.9629 229.954 61.6393 231.094 63.0391C232.233 64.4388 233.714 65.513 235.537 66.2617C237.36 67.0104 239.59 67.3848 242.227 67.3848C244.31 67.3848 246.165 67.222 247.793 66.8965C249.421 66.5384 250.82 66.1478 251.992 65.7246C253.197 65.3014 254.173 64.9271 254.922 64.6016C255.703 64.2435 256.289 64.0645 256.68 64.0645C256.908 64.0645 257.103 64.1296 257.266 64.2598C257.461 64.3574 257.607 64.5202 257.705 64.748C257.803 64.9759 257.868 65.3014 257.9 65.7246C257.965 66.1152 257.998 66.6035 257.998 67.1895C257.998 67.6126 257.982 67.987 257.949 68.3125C257.917 68.6055 257.868 68.8822 257.803 69.1426C257.77 69.3704 257.689 69.582 257.559 69.7773C257.461 69.9727 257.314 70.168 257.119 70.3633C256.956 70.526 256.436 70.819 255.557 71.2422C254.678 71.6328 253.538 72.0234 252.139 72.4141C250.739 72.8047 249.111 73.1465 247.256 73.4395C245.433 73.765 243.48 73.9277 241.396 73.9277C237.783 73.9277 234.609 73.4232 231.875 72.4141C229.173 71.4049 226.895 69.9076 225.039 67.9219C223.184 65.9362 221.784 63.446 220.84 60.4512C219.896 57.4564 219.424 53.9733 219.424 50.002C219.424 46.2259 219.912 42.8405 220.889 39.8457C221.865 36.8184 223.265 34.263 225.088 32.1797C226.943 30.0638 229.173 28.4525 231.777 27.3457C234.382 26.2064 237.295 25.6367 240.518 25.6367C243.968 25.6367 246.898 26.1901 249.307 27.2969C251.748 28.4036 253.75 29.901 255.312 31.7891C256.875 33.6445 258.014 35.8418 258.73 38.3809C259.479 40.8874 259.854 43.5729 259.854 46.4375V47.9023ZM251.748 45.5098C251.846 41.278 250.902 37.9577 248.916 35.5488C246.963 33.14 244.049 31.9355 240.176 31.9355C238.19 31.9355 236.449 32.3099 234.951 33.0586C233.454 33.8073 232.201 34.8001 231.191 36.0371C230.182 37.2741 229.401 38.7227 228.848 40.3828C228.294 42.0104 227.985 43.7194 227.92 45.5098H251.748Z" fill="#515151"/>
<path d="M312.588 49.123C312.588 52.9642 312.165 56.4147 311.318 59.4746C310.505 62.5345 309.284 65.1387 307.656 67.2871C306.061 69.403 304.076 71.0469 301.699 72.2188C299.323 73.3581 296.605 73.9277 293.545 73.9277C292.243 73.9277 291.038 73.7975 289.932 73.5371C288.825 73.2767 287.734 72.8698 286.66 72.3164C285.618 71.763 284.577 71.0632 283.535 70.2168C282.493 69.3704 281.387 68.3776 280.215 67.2383V89.2109C280.215 89.4714 280.15 89.6992 280.02 89.8945C279.889 90.0898 279.678 90.2526 279.385 90.3828C279.092 90.513 278.685 90.6107 278.164 90.6758C277.643 90.7409 276.976 90.7734 276.162 90.7734C275.381 90.7734 274.73 90.7409 274.209 90.6758C273.688 90.6107 273.265 90.513 272.939 90.3828C272.646 90.2526 272.435 90.0898 272.305 89.8945C272.207 89.6992 272.158 89.4714 272.158 89.2109V27.834C272.158 27.541 272.207 27.3132 272.305 27.1504C272.402 26.9551 272.598 26.7923 272.891 26.6621C273.184 26.5319 273.558 26.4505 274.014 26.418C274.469 26.3529 275.023 26.3203 275.674 26.3203C276.357 26.3203 276.911 26.3529 277.334 26.418C277.79 26.4505 278.164 26.5319 278.457 26.6621C278.75 26.7923 278.945 26.9551 279.043 27.1504C279.173 27.3132 279.238 27.541 279.238 27.834V33.7422C280.573 32.375 281.859 31.1868 283.096 30.1777C284.333 29.1686 285.57 28.3385 286.807 27.6875C288.076 27.0039 289.362 26.4993 290.664 26.1738C291.999 25.8158 293.398 25.6367 294.863 25.6367C298.053 25.6367 300.771 26.2552 303.018 27.4922C305.264 28.7292 307.087 30.4219 308.486 32.5703C309.919 34.7188 310.96 37.2253 311.611 40.0898C312.262 42.9219 312.588 45.9329 312.588 49.123ZM304.092 50.0508C304.092 47.8047 303.913 45.64 303.555 43.5566C303.229 41.4408 302.643 39.569 301.797 37.9414C300.983 36.3138 299.876 35.0117 298.477 34.0352C297.077 33.0586 295.335 32.5703 293.252 32.5703C292.21 32.5703 291.185 32.7331 290.176 33.0586C289.167 33.3516 288.141 33.8398 287.1 34.5234C286.058 35.1745 284.967 36.0534 283.828 37.1602C282.689 38.2344 281.484 39.569 280.215 41.1641V58.6445C282.428 61.3464 284.528 63.4134 286.514 64.8457C288.499 66.278 290.583 66.9941 292.764 66.9941C294.782 66.9941 296.507 66.5059 297.939 65.5293C299.404 64.5527 300.576 63.2507 301.455 61.623C302.367 59.9954 303.034 58.1725 303.457 56.1543C303.88 54.1361 304.092 52.1016 304.092 50.0508Z" fill="#515151"/>
<path d="M350.381 30.7148C350.381 31.431 350.365 32.0332 350.332 32.5215C350.299 33.0098 350.234 33.4004 350.137 33.6934C350.039 33.9538 349.909 34.1654 349.746 34.3281C349.616 34.4583 349.421 34.5234 349.16 34.5234C348.9 34.5234 348.574 34.4583 348.184 34.3281C347.826 34.1654 347.402 34.0189 346.914 33.8887C346.458 33.7259 345.938 33.5794 345.352 33.4492C344.766 33.319 344.131 33.2539 343.447 33.2539C342.633 33.2539 341.836 33.4167 341.055 33.7422C340.273 34.0677 339.443 34.6048 338.564 35.3535C337.718 36.1022 336.823 37.0951 335.879 38.332C334.935 39.569 333.893 41.0827 332.754 42.873V71.7793C332.754 72.0397 332.689 72.2676 332.559 72.4629C332.428 72.6257 332.217 72.7721 331.924 72.9023C331.631 73.0326 331.224 73.1302 330.703 73.1953C330.182 73.2604 329.515 73.293 328.701 73.293C327.92 73.293 327.269 73.2604 326.748 73.1953C326.227 73.1302 325.804 73.0326 325.479 72.9023C325.186 72.7721 324.974 72.6257 324.844 72.4629C324.746 72.2676 324.697 72.0397 324.697 71.7793V27.834C324.697 27.5736 324.746 27.362 324.844 27.1992C324.941 27.0039 325.137 26.8411 325.43 26.7109C325.723 26.5482 326.097 26.4505 326.553 26.418C327.008 26.3529 327.611 26.3203 328.359 26.3203C329.076 26.3203 329.661 26.3529 330.117 26.418C330.605 26.4505 330.98 26.5482 331.24 26.7109C331.501 26.8411 331.68 27.0039 331.777 27.1992C331.908 27.362 331.973 27.5736 331.973 27.834V34.2305C333.177 32.4727 334.3 31.0404 335.342 29.9336C336.416 28.8268 337.425 27.9642 338.369 27.3457C339.313 26.6947 340.241 26.2552 341.152 26.0273C342.096 25.7669 343.04 25.6367 343.984 25.6367C344.408 25.6367 344.88 25.6693 345.4 25.7344C345.954 25.7669 346.523 25.8483 347.109 25.9785C347.695 26.1087 348.216 26.2552 348.672 26.418C349.16 26.5807 349.502 26.7435 349.697 26.9062C349.893 27.069 350.023 27.2318 350.088 27.3945C350.153 27.5247 350.202 27.7038 350.234 27.9316C350.299 28.1595 350.332 28.5013 350.332 28.957C350.365 29.3802 350.381 29.9661 350.381 30.7148Z" fill="#515151"/>
<path d="M367.617 71.7793C367.617 72.0397 367.552 72.2676 367.422 72.4629C367.292 72.6257 367.08 72.7721 366.787 72.9023C366.494 73.0326 366.087 73.1302 365.566 73.1953C365.046 73.2604 364.378 73.293 363.564 73.293C362.783 73.293 362.132 73.2604 361.611 73.1953C361.09 73.1302 360.667 73.0326 360.342 72.9023C360.049 72.7721 359.837 72.6257 359.707 72.4629C359.609 72.2676 359.561 72.0397 359.561 71.7793V27.834C359.561 27.6061 359.609 27.3945 359.707 27.1992C359.837 27.0039 360.049 26.8411 360.342 26.7109C360.667 26.5807 361.09 26.4831 361.611 26.418C362.132 26.3529 362.783 26.3203 363.564 26.3203C364.378 26.3203 365.046 26.3529 365.566 26.418C366.087 26.4831 366.494 26.5807 366.787 26.7109C367.08 26.8411 367.292 27.0039 367.422 27.1992C367.552 27.3945 367.617 27.6061 367.617 27.834V71.7793ZM368.545 12.9902C368.545 14.8783 368.187 16.1641 367.471 16.8477C366.755 17.5312 365.436 17.873 363.516 17.873C361.628 17.873 360.326 17.5475 359.609 16.8965C358.926 16.2129 358.584 14.9434 358.584 13.0879C358.584 11.1999 358.942 9.91406 359.658 9.23047C360.374 8.54688 361.693 8.20508 363.613 8.20508C365.501 8.20508 366.787 8.54688 367.471 9.23047C368.187 9.88151 368.545 11.1348 368.545 12.9902Z" fill="#515151"/>
<path d="M420.352 71.7793C420.352 72.0397 420.286 72.2676 420.156 72.4629C420.026 72.6257 419.814 72.7721 419.521 72.9023C419.229 73.0326 418.822 73.1302 418.301 73.1953C417.78 73.2604 417.129 73.293 416.348 73.293C415.534 73.293 414.867 73.2604 414.346 73.1953C413.825 73.1302 413.418 73.0326 413.125 72.9023C412.832 72.7721 412.62 72.6257 412.49 72.4629C412.36 72.2676 412.295 72.0397 412.295 71.7793V46.0469C412.295 43.5404 412.1 41.5221 411.709 39.9922C411.318 38.4622 410.749 37.1439 410 36.0371C409.251 34.9303 408.275 34.084 407.07 33.498C405.898 32.9121 404.531 32.6191 402.969 32.6191C400.951 32.6191 398.932 33.3353 396.914 34.7676C394.896 36.1999 392.78 38.2995 390.566 41.0664V71.7793C390.566 72.0397 390.501 72.2676 390.371 72.4629C390.241 72.6257 390.029 72.7721 389.736 72.9023C389.443 73.0326 389.036 73.1302 388.516 73.1953C387.995 73.2604 387.327 73.293 386.514 73.293C385.732 73.293 385.081 73.2604 384.561 73.1953C384.04 73.1302 383.617 73.0326 383.291 72.9023C382.998 72.7721 382.786 72.6257 382.656 72.4629C382.559 72.2676 382.51 72.0397 382.51 71.7793V27.834C382.51 27.5736 382.559 27.362 382.656 27.1992C382.754 27.0039 382.949 26.8411 383.242 26.7109C383.535 26.5482 383.91 26.4505 384.365 26.418C384.821 26.3529 385.423 26.3203 386.172 26.3203C386.888 26.3203 387.474 26.3529 387.93 26.418C388.418 26.4505 388.792 26.5482 389.053 26.7109C389.313 26.8411 389.492 27.0039 389.59 27.1992C389.72 27.362 389.785 27.5736 389.785 27.834V33.6445C392.259 30.8776 394.717 28.8594 397.158 27.5898C399.632 26.2878 402.122 25.6367 404.629 25.6367C407.559 25.6367 410.016 26.1413 412.002 27.1504C414.02 28.127 415.648 29.4453 416.885 31.1055C418.122 32.7656 419.001 34.7188 419.521 36.9648C420.075 39.1784 420.352 41.8477 420.352 44.9727V71.7793Z" fill="#515151"/>
<path d="M456.924 68.5566C456.924 69.5007 456.859 70.2493 456.729 70.8027C456.598 71.3561 456.403 71.763 456.143 72.0234C455.882 72.2839 455.492 72.528 454.971 72.7559C454.45 72.9837 453.848 73.1628 453.164 73.293C452.513 73.4557 451.813 73.5859 451.064 73.6836C450.316 73.7812 449.567 73.8301 448.818 73.8301C446.54 73.8301 444.587 73.5371 442.959 72.9512C441.331 72.3327 439.997 71.4212 438.955 70.2168C437.913 68.9798 437.148 67.4336 436.66 65.5781C436.204 63.6901 435.977 61.4766 435.977 58.9375V33.2539H429.824C429.336 33.2539 428.945 32.9935 428.652 32.4727C428.359 31.9518 428.213 31.1055 428.213 29.9336C428.213 29.3151 428.245 28.7943 428.311 28.3711C428.408 27.9479 428.522 27.6061 428.652 27.3457C428.783 27.0527 428.945 26.8574 429.141 26.7598C429.368 26.6296 429.613 26.5645 429.873 26.5645H435.977V16.1152C435.977 15.8874 436.025 15.6758 436.123 15.4805C436.253 15.2852 436.465 15.1224 436.758 14.9922C437.083 14.8294 437.507 14.7155 438.027 14.6504C438.548 14.5853 439.199 14.5527 439.98 14.5527C440.794 14.5527 441.462 14.5853 441.982 14.6504C442.503 14.7155 442.91 14.8294 443.203 14.9922C443.496 15.1224 443.708 15.2852 443.838 15.4805C443.968 15.6758 444.033 15.8874 444.033 16.1152V26.5645H455.312C455.573 26.5645 455.801 26.6296 455.996 26.7598C456.191 26.8574 456.354 27.0527 456.484 27.3457C456.647 27.6061 456.761 27.9479 456.826 28.3711C456.891 28.7943 456.924 29.3151 456.924 29.9336C456.924 31.1055 456.777 31.9518 456.484 32.4727C456.191 32.9935 455.801 33.2539 455.312 33.2539H444.033V57.7656C444.033 60.793 444.473 63.0879 445.352 64.6504C446.263 66.1803 447.874 66.9453 450.186 66.9453C450.934 66.9453 451.602 66.8802 452.188 66.75C452.773 66.5872 453.294 66.4245 453.75 66.2617C454.206 66.099 454.596 65.9525 454.922 65.8223C455.247 65.6595 455.54 65.5781 455.801 65.5781C455.964 65.5781 456.11 65.627 456.24 65.7246C456.403 65.7897 456.517 65.9362 456.582 66.1641C456.68 66.3919 456.761 66.7012 456.826 67.0918C456.891 67.4824 456.924 67.9707 456.924 68.5566Z" fill="#515151"/>
<path d="M503.652 29.2988C503.652 30.2103 503.506 30.8451 503.213 31.2031C502.92 31.5612 502.546 31.7402 502.09 31.7402H495.107C496.475 33.14 497.419 34.6699 497.939 36.3301C498.493 37.9577 498.77 39.6829 498.77 41.5059C498.77 44.0124 498.363 46.2422 497.549 48.1953C496.768 50.1484 495.645 51.8086 494.18 53.1758C492.715 54.5104 490.973 55.5358 488.955 56.252C486.937 56.9681 484.707 57.3262 482.266 57.3262C480.28 57.3262 478.392 57.0495 476.602 56.4961C474.811 55.9427 473.411 55.2591 472.402 54.4453C471.751 55.0964 471.214 55.8451 470.791 56.6914C470.368 57.5378 470.156 58.5143 470.156 59.6211C470.156 60.8581 470.742 61.8997 471.914 62.7461C473.118 63.5924 474.665 64.0482 476.553 64.1133L488.516 64.6016C490.534 64.6667 492.422 64.9434 494.18 65.4316C495.97 65.9199 497.533 66.6523 498.867 67.6289C500.202 68.5729 501.26 69.7448 502.041 71.1445C502.822 72.5443 503.213 74.1882 503.213 76.0762C503.213 78.0293 502.806 79.901 501.992 81.6914C501.211 83.4818 499.974 85.0443 498.281 86.3789C496.621 87.7461 494.489 88.8203 491.885 89.6016C489.281 90.4154 486.172 90.8223 482.559 90.8223C479.108 90.8223 476.162 90.513 473.721 89.8945C471.312 89.3086 469.326 88.4785 467.764 87.4043C466.234 86.3626 465.111 85.1257 464.395 83.6934C463.711 82.2611 463.369 80.7148 463.369 79.0547C463.369 77.9154 463.499 76.8411 463.76 75.832C464.02 74.8229 464.411 73.8626 464.932 72.9512C465.485 72.0397 466.152 71.1608 466.934 70.3145C467.747 69.4681 468.675 68.6055 469.717 67.7266C468.057 66.8802 466.836 65.8548 466.055 64.6504C465.273 63.446 464.883 62.1602 464.883 60.793C464.883 58.7747 465.273 57.0007 466.055 55.4707C466.836 53.9082 467.78 52.5085 468.887 51.2715C467.943 50.0345 467.21 48.6836 466.689 47.2188C466.169 45.7539 465.908 43.9961 465.908 41.9453C465.908 39.4714 466.315 37.2578 467.129 35.3047C467.943 33.319 469.066 31.6426 470.498 30.2754C471.963 28.9082 473.704 27.8665 475.723 27.1504C477.741 26.4017 479.954 26.0273 482.363 26.0273C483.633 26.0273 484.821 26.1087 485.928 26.2715C487.067 26.4017 488.109 26.5807 489.053 26.8086H502.09C502.643 26.8086 503.034 27.0202 503.262 27.4434C503.522 27.8665 503.652 28.485 503.652 29.2988ZM492.764 41.6035C492.764 38.2507 491.836 35.6302 489.98 33.7422C488.158 31.8542 485.553 30.9102 482.168 30.9102C480.443 30.9102 478.929 31.2031 477.627 31.7891C476.325 32.375 475.251 33.1725 474.404 34.1816C473.558 35.1908 472.923 36.3626 472.5 37.6973C472.077 39.0319 471.865 40.4479 471.865 41.9453C471.865 45.2005 472.777 47.7721 474.6 49.6602C476.455 51.5156 479.043 52.4434 482.363 52.4434C484.121 52.4434 485.651 52.1504 486.953 51.5645C488.288 50.9785 489.378 50.1973 490.225 49.2207C491.071 48.2116 491.706 47.056 492.129 45.7539C492.552 44.4193 492.764 43.0358 492.764 41.6035ZM497.402 76.418C497.402 74.2695 496.523 72.6257 494.766 71.4863C493.04 70.347 490.713 69.7285 487.783 69.6309L474.941 69.1914C473.77 70.1029 472.809 70.9655 472.061 71.7793C471.312 72.5931 470.71 73.3743 470.254 74.123C469.831 74.9043 469.538 75.653 469.375 76.3691C469.212 77.1178 469.131 77.8665 469.131 78.6152C469.131 81.0241 470.335 82.847 472.744 84.084C475.186 85.321 478.571 85.9395 482.9 85.9395C485.635 85.9395 487.913 85.6628 489.736 85.1094C491.592 84.5885 493.089 83.8887 494.229 83.0098C495.368 82.1309 496.182 81.1217 496.67 79.9824C497.158 78.8431 497.402 77.6549 497.402 76.418Z" fill="#515151"/>
<path d="M539.639 30.0801C539.639 30.5684 539.622 30.9915 539.59 31.3496C539.557 31.6751 539.492 31.9518 539.395 32.1797C539.329 32.375 539.232 32.5378 539.102 32.668C539.004 32.7656 538.857 32.8145 538.662 32.8145C538.369 32.8145 538.027 32.7493 537.637 32.6191C537.246 32.4564 536.79 32.2936 536.27 32.1309C535.749 31.9681 535.179 31.8216 534.561 31.6914C533.942 31.5286 533.258 31.4473 532.51 31.4473C531.631 31.4473 530.768 31.6426 529.922 32.0332C529.076 32.3913 528.18 32.9935 527.236 33.8398C526.325 34.6536 525.348 35.7441 524.307 37.1113C523.298 38.4785 522.174 40.1549 520.938 42.1406V72.0234C520.938 72.2188 520.889 72.3978 520.791 72.5605C520.693 72.7233 520.531 72.8535 520.303 72.9512C520.107 73.0488 519.814 73.1302 519.424 73.1953C519.066 73.2604 518.594 73.293 518.008 73.293C517.454 73.293 516.982 73.2604 516.592 73.1953C516.234 73.1302 515.941 73.0488 515.713 72.9512C515.485 72.8535 515.322 72.7233 515.225 72.5605C515.16 72.3978 515.127 72.2188 515.127 72.0234V27.834C515.127 27.6387 515.16 27.4596 515.225 27.2969C515.322 27.1341 515.485 27.0039 515.713 26.9062C515.941 26.776 516.217 26.6947 516.543 26.6621C516.901 26.597 517.357 26.5645 517.91 26.5645C518.464 26.5645 518.919 26.597 519.277 26.6621C519.635 26.6947 519.912 26.776 520.107 26.9062C520.303 27.0039 520.433 27.1341 520.498 27.2969C520.596 27.4596 520.645 27.6387 520.645 27.834V34.8164C521.914 32.9609 523.086 31.4635 524.16 30.3242C525.234 29.1849 526.26 28.306 527.236 27.6875C528.213 27.0365 529.157 26.597 530.068 26.3691C531.012 26.1413 531.973 26.0273 532.949 26.0273C533.372 26.0273 533.861 26.0599 534.414 26.125C534.967 26.1576 535.553 26.2389 536.172 26.3691C536.823 26.4993 537.393 26.6621 537.881 26.8574C538.402 27.0202 538.76 27.1829 538.955 27.3457C539.15 27.4759 539.281 27.6061 539.346 27.7363C539.411 27.834 539.46 27.9805 539.492 28.1758C539.557 28.3385 539.59 28.5827 539.59 28.9082C539.622 29.2012 539.639 29.5918 539.639 30.0801Z" fill="#515151"/>
<path d="M586.758 49.4648C586.758 52.9805 586.302 56.2194 585.391 59.1816C584.479 62.1439 583.112 64.7155 581.289 66.8965C579.499 69.0775 577.253 70.7865 574.551 72.0234C571.849 73.2279 568.708 73.8301 565.127 73.8301C561.676 73.8301 558.649 73.293 556.045 72.2188C553.473 71.112 551.309 69.5495 549.551 67.5312C547.826 65.4805 546.523 63.0065 545.645 60.1094C544.798 57.2122 544.375 53.9408 544.375 50.2949C544.375 46.7793 544.814 43.5404 545.693 40.5781C546.605 37.6159 547.956 35.0605 549.746 32.9121C551.569 30.7311 553.831 29.0384 556.533 27.834C559.235 26.6296 562.393 26.0273 566.006 26.0273C569.456 26.0273 572.467 26.5645 575.039 27.6387C577.643 28.7129 579.808 30.2754 581.533 32.3262C583.258 34.3444 584.561 36.8021 585.439 39.6992C586.318 42.5964 586.758 45.8516 586.758 49.4648ZM580.605 50.002C580.605 47.4954 580.361 45.1029 579.873 42.8242C579.385 40.5456 578.571 38.5436 577.432 36.8184C576.292 35.0605 574.762 33.6771 572.842 32.668C570.921 31.6263 568.529 31.1055 565.664 31.1055C563.027 31.1055 560.749 31.5775 558.828 32.5215C556.908 33.4655 555.329 34.7839 554.092 36.4766C552.887 38.1367 551.992 40.1061 551.406 42.3848C550.82 44.6634 550.527 47.1211 550.527 49.7578C550.527 52.2969 550.771 54.722 551.26 57.0332C551.748 59.3118 552.562 61.3138 553.701 63.0391C554.84 64.7643 556.37 66.1315 558.291 67.1406C560.212 68.1497 562.604 68.6543 565.469 68.6543C568.105 68.6543 570.384 68.1823 572.305 67.2383C574.225 66.2943 575.788 64.9922 576.992 63.332C578.229 61.6719 579.141 59.7025 579.727 57.4238C580.312 55.1452 580.605 52.6712 580.605 50.002Z" fill="#515151"/>
<path d="M635.439 72.0234C635.439 72.2188 635.391 72.3978 635.293 72.5605C635.228 72.7233 635.081 72.8535 634.854 72.9512C634.626 73.0488 634.333 73.1302 633.975 73.1953C633.617 73.2604 633.177 73.293 632.656 73.293C632.07 73.293 631.598 73.2604 631.24 73.1953C630.882 73.1302 630.605 73.0488 630.41 72.9512C630.215 72.8535 630.068 72.7233 629.971 72.5605C629.906 72.3978 629.873 72.2188 629.873 72.0234V65.7734C627.334 68.6055 624.844 70.6562 622.402 71.9258C619.993 73.1953 617.585 73.8301 615.176 73.8301C612.279 73.8301 609.837 73.3418 607.852 72.3652C605.866 71.3887 604.255 70.0703 603.018 68.4102C601.813 66.7174 600.934 64.7643 600.381 62.5508C599.86 60.3372 599.6 57.668 599.6 54.543V27.834C599.6 27.6387 599.632 27.4596 599.697 27.2969C599.795 27.1341 599.958 27.0039 600.186 26.9062C600.413 26.776 600.706 26.6947 601.064 26.6621C601.455 26.597 601.927 26.5645 602.48 26.5645C603.066 26.5645 603.538 26.597 603.896 26.6621C604.287 26.6947 604.58 26.776 604.775 26.9062C605.003 27.0039 605.166 27.1341 605.264 27.2969C605.361 27.4596 605.41 27.6387 605.41 27.834V54.0059C605.41 56.7402 605.622 58.9701 606.045 60.6953C606.468 62.4206 607.103 63.9017 607.949 65.1387C608.796 66.3431 609.87 67.2871 611.172 67.9707C612.507 68.6217 614.053 68.9473 615.811 68.9473C618.057 68.9473 620.286 68.1497 622.5 66.5547C624.746 64.9596 627.122 62.6159 629.629 59.5234V27.834C629.629 27.6387 629.661 27.4596 629.727 27.2969C629.824 27.1341 629.987 27.0039 630.215 26.9062C630.443 26.776 630.736 26.6947 631.094 26.6621C631.484 26.597 631.973 26.5645 632.559 26.5645C633.112 26.5645 633.568 26.597 633.926 26.6621C634.316 26.6947 634.609 26.776 634.805 26.9062C635.033 27.0039 635.195 27.1341 635.293 27.2969C635.391 27.4596 635.439 27.6387 635.439 27.834V72.0234Z" fill="#515151"/>
<path d="M690.322 49.2695C690.322 53.0456 689.899 56.4473 689.053 59.4746C688.239 62.502 687.018 65.0736 685.391 67.1895C683.796 69.3053 681.81 70.9492 679.434 72.1211C677.057 73.2604 674.339 73.8301 671.279 73.8301C669.977 73.8301 668.757 73.6836 667.617 73.3906C666.478 73.1302 665.355 72.707 664.248 72.1211C663.174 71.5352 662.083 70.8027 660.977 69.9238C659.902 69.0449 658.763 67.987 657.559 66.75V89.5527C657.559 89.748 657.51 89.9271 657.412 90.0898C657.314 90.2526 657.152 90.3828 656.924 90.4805C656.729 90.6107 656.436 90.6921 656.045 90.7246C655.687 90.7897 655.215 90.8223 654.629 90.8223C654.076 90.8223 653.604 90.7897 653.213 90.7246C652.855 90.6921 652.562 90.6107 652.334 90.4805C652.106 90.3828 651.943 90.2526 651.846 90.0898C651.781 89.9271 651.748 89.748 651.748 89.5527V27.834C651.748 27.6061 651.781 27.4108 651.846 27.248C651.943 27.0853 652.09 26.9551 652.285 26.8574C652.513 26.7598 652.79 26.6947 653.115 26.6621C653.473 26.597 653.896 26.5645 654.385 26.5645C654.873 26.5645 655.28 26.597 655.605 26.6621C655.931 26.6947 656.208 26.7598 656.436 26.8574C656.663 26.9551 656.826 27.0853 656.924 27.248C657.021 27.4108 657.07 27.6061 657.07 27.834V34.2305C658.438 32.8307 659.74 31.6263 660.977 30.6172C662.214 29.5755 663.451 28.7129 664.688 28.0293C665.924 27.3457 667.194 26.8411 668.496 26.5156C669.798 26.1901 671.182 26.0273 672.646 26.0273C675.837 26.0273 678.555 26.6458 680.801 27.8828C683.047 29.0872 684.87 30.7474 686.27 32.8633C687.702 34.9792 688.727 37.4531 689.346 40.2852C689.997 43.0846 690.322 46.0794 690.322 49.2695ZM684.219 50.1973C684.219 47.7233 684.023 45.347 683.633 43.0684C683.242 40.7572 682.575 38.7064 681.631 36.916C680.719 35.1257 679.482 33.6934 677.92 32.6191C676.39 31.5449 674.453 31.0078 672.109 31.0078C670.938 31.0078 669.782 31.1706 668.643 31.4961C667.536 31.8216 666.396 32.3587 665.225 33.1074C664.053 33.8561 662.832 34.8327 661.562 36.0371C660.293 37.209 658.958 38.6738 657.559 40.4316V59.6699C660 62.6322 662.327 64.9108 664.541 66.5059C666.787 68.0684 669.131 68.8496 671.572 68.8496C673.818 68.8496 675.739 68.3125 677.334 67.2383C678.962 66.1315 680.28 64.6992 681.289 62.9414C682.298 61.151 683.031 59.1491 683.486 56.9355C683.975 54.6895 684.219 52.4434 684.219 50.1973Z" fill="#515151"/>
<path d="M13.5859 8.2207L11.3008 16.1895H15.9004L15.4023 18.0352H10.832L5.79297 35.3203C5.24609 37.1758 4.97266 38.377 4.97266 38.9238C4.97266 39.2559 5.05078 39.5098 5.20703 39.6855C5.36328 39.8613 5.54883 39.9492 5.76367 39.9492C6.25195 39.9492 6.89648 39.6074 7.69727 38.9238C8.16602 38.5332 9.21094 37.332 10.832 35.3203L11.7988 36.0527C10.002 38.6699 8.30273 40.5156 6.70117 41.5898C5.60742 42.332 4.50391 42.7031 3.39062 42.7031C2.53125 42.7031 1.82812 42.4395 1.28125 41.9121C0.734375 41.3652 0.460938 40.6719 0.460938 39.832C0.460938 38.7773 0.773438 37.166 1.39844 34.998L6.29102 18.0352H1.86719L2.16016 16.8926C4.30859 16.3066 6.0957 15.4375 7.52148 14.2852C8.94727 13.1133 10.5391 11.0918 12.2969 8.2207H13.5859Z" fill="#5C6F63"/>
<path d="M32.3066 0.339844L24.0742 28.7871C27.6289 23.4355 30.4023 19.8809 32.3945 18.123C34.3867 16.3652 36.291 15.4863 38.1074 15.4863C39.0449 15.4863 39.8262 15.8086 40.4512 16.4531C41.0762 17.0977 41.3887 17.957 41.3887 19.0312C41.3887 20.3203 41.1152 21.8828 40.5684 23.7188L36.9941 35.9941C36.5449 37.4785 36.3203 38.2988 36.3203 38.4551C36.3203 38.7285 36.3984 38.9531 36.5547 39.1289C36.7305 39.3047 36.9258 39.3926 37.1406 39.3926C37.3945 39.3926 37.6875 39.2656 38.0195 39.0117C39.1328 38.1523 40.2363 36.9609 41.3301 35.4375L42.2383 35.9941C41.5742 37.0293 40.6465 38.1719 39.4551 39.4219C38.2832 40.6523 37.2676 41.5117 36.4082 42C35.5684 42.4688 34.8164 42.7031 34.1523 42.7031C33.4297 42.7031 32.834 42.4688 32.3652 42C31.916 41.5508 31.6914 40.9648 31.6914 40.2422C31.6914 39.3828 32.0332 37.7812 32.7168 35.4375L36.0859 23.7188C36.5156 22.2539 36.7305 21.1016 36.7305 20.2617C36.7305 19.8711 36.6035 19.5586 36.3496 19.3242C36.1152 19.0898 35.8027 18.9727 35.4121 18.9727C34.8457 18.9727 34.2012 19.1875 33.4785 19.6172C32.1504 20.4375 30.6172 21.9609 28.8789 24.1875C28.4102 24.793 26.8477 27.2344 24.1914 31.5117C23.3711 32.8789 22.6973 34.373 22.1699 35.9941L20.2949 42H15.9004L25.5391 8.48438L26.5645 4.85156C26.5645 4.34375 26.3496 3.89453 25.9199 3.50391C25.5098 3.11328 25.002 2.91797 24.3965 2.91797C24.0449 2.91797 23.5078 2.97656 22.7852 3.09375L22.1699 3.18164V2.03906L32.3066 0.339844Z" fill="#5C6F63"/>
<path d="M51.8477 30.9551C51.7109 31.9316 51.6426 32.7422 51.6426 33.3867C51.6426 35.125 52.2578 36.6094 53.4883 37.8398C54.7188 39.0508 56.2129 39.6562 57.9707 39.6562C59.377 39.6562 60.7246 39.373 62.0137 38.8066C63.3223 38.2207 65.2559 36.9414 67.8145 34.9688L68.4297 35.8184C63.8008 40.4082 59.3867 42.7031 55.1875 42.7031C52.3359 42.7031 50.1875 41.8047 48.7422 40.0078C47.2969 38.2109 46.5742 36.2285 46.5742 34.0605C46.5742 31.1504 47.4727 28.1719 49.2695 25.125C51.0664 22.0781 53.3223 19.7148 56.0371 18.0352C58.752 16.3359 61.5449 15.4863 64.416 15.4863C66.4863 15.4863 68.0195 15.9062 69.0156 16.7461C70.0117 17.5859 70.5098 18.582 70.5098 19.7344C70.5098 21.3555 69.8652 22.9082 68.5762 24.3926C66.877 26.3262 64.377 27.8887 61.0762 29.0801C58.8887 29.8809 55.8125 30.5059 51.8477 30.9551ZM52.0527 29.5195C54.9434 29.1875 57.2969 28.6211 59.1133 27.8203C61.5156 26.7461 63.3125 25.4668 64.5039 23.9824C65.7148 22.4785 66.3203 21.0527 66.3203 19.7051C66.3203 18.8848 66.0566 18.2207 65.5293 17.7129C65.0215 17.2051 64.2891 16.9512 63.332 16.9512C61.3398 16.9512 59.2207 18.0156 56.9746 20.1445C54.748 22.2539 53.1074 25.3789 52.0527 29.5195Z" fill="#5C6F63"/>
<path d="M108.367 129.906C108.367 130.089 108.354 130.245 108.328 130.375C108.302 130.505 108.263 130.622 108.211 130.727C108.159 130.818 108.094 130.889 108.016 130.941C107.938 130.98 107.846 131 107.742 131H96.7852C96.5508 131 96.3099 130.915 96.0625 130.746C95.8151 130.564 95.6914 130.238 95.6914 129.77V106.117C95.6914 106.039 95.7109 105.967 95.75 105.902C95.7891 105.837 95.8542 105.785 95.9453 105.746C96.0365 105.707 96.1602 105.674 96.3164 105.648C96.4727 105.622 96.6615 105.609 96.8828 105.609C97.1172 105.609 97.306 105.622 97.4492 105.648C97.6055 105.674 97.7292 105.707 97.8203 105.746C97.9115 105.785 97.9766 105.837 98.0156 105.902C98.0547 105.967 98.0742 106.039 98.0742 106.117V128.832H107.742C107.846 128.832 107.938 128.858 108.016 128.91C108.094 128.949 108.159 129.014 108.211 129.105C108.263 129.184 108.302 129.294 108.328 129.438C108.354 129.568 108.367 129.724 108.367 129.906Z" fill="#515151"/>
<path d="M126.434 120.863C126.434 121.332 126.31 121.658 126.062 121.84C125.815 122.009 125.574 122.094 125.34 122.094H113.289C113.289 123.188 113.393 124.177 113.602 125.062C113.823 125.948 114.181 126.71 114.676 127.348C115.171 127.973 115.815 128.454 116.609 128.793C117.404 129.132 118.38 129.301 119.539 129.301C120.359 129.301 121.095 129.229 121.746 129.086C122.397 128.943 122.957 128.786 123.426 128.617C123.908 128.435 124.298 128.272 124.598 128.129C124.91 127.986 125.132 127.914 125.262 127.914C125.34 127.914 125.411 127.934 125.477 127.973C125.542 128.012 125.594 128.077 125.633 128.168C125.672 128.246 125.698 128.35 125.711 128.48C125.737 128.611 125.75 128.773 125.75 128.969C125.75 129.06 125.743 129.151 125.73 129.242C125.717 129.32 125.698 129.398 125.672 129.477C125.659 129.542 125.633 129.607 125.594 129.672C125.555 129.737 125.503 129.802 125.438 129.867C125.372 129.932 125.171 130.049 124.832 130.219C124.493 130.375 124.051 130.538 123.504 130.707C122.957 130.863 122.319 131.007 121.59 131.137C120.874 131.267 120.099 131.332 119.266 131.332C117.898 131.332 116.688 131.13 115.633 130.727C114.578 130.31 113.693 129.704 112.977 128.91C112.26 128.103 111.714 127.107 111.336 125.922C110.971 124.737 110.789 123.363 110.789 121.801C110.789 120.303 110.978 118.962 111.355 117.777C111.746 116.592 112.299 115.59 113.016 114.77C113.732 113.936 114.591 113.305 115.594 112.875C116.609 112.432 117.736 112.211 118.973 112.211C120.301 112.211 121.434 112.432 122.371 112.875C123.309 113.318 124.077 113.917 124.676 114.672C125.288 115.414 125.73 116.28 126.004 117.27C126.29 118.259 126.434 119.301 126.434 120.395V120.863ZM124.031 120.18C124.07 118.305 123.641 116.84 122.742 115.785C121.844 114.73 120.535 114.203 118.816 114.203C117.931 114.203 117.15 114.372 116.473 114.711C115.809 115.036 115.242 115.473 114.773 116.02C114.318 116.566 113.966 117.204 113.719 117.934C113.471 118.65 113.328 119.398 113.289 120.18H124.031Z" fill="#515151"/>
<path d="M144.168 130.609C144.168 130.74 144.122 130.844 144.031 130.922C143.953 130.987 143.842 131.033 143.699 131.059C143.569 131.098 143.387 131.117 143.152 131.117C142.931 131.117 142.742 131.098 142.586 131.059C142.43 131.033 142.306 130.987 142.215 130.922C142.137 130.844 142.098 130.74 142.098 130.609V128.637C141.303 129.496 140.424 130.16 139.461 130.629C138.51 131.098 137.521 131.332 136.492 131.332C135.568 131.332 134.734 131.215 133.992 130.98C133.263 130.733 132.645 130.388 132.137 129.945C131.629 129.49 131.238 128.943 130.965 128.305C130.691 127.667 130.555 126.951 130.555 126.156C130.555 125.18 130.757 124.333 131.16 123.617C131.564 122.888 132.137 122.283 132.879 121.801C133.621 121.319 134.513 120.961 135.555 120.727C136.596 120.479 137.755 120.355 139.031 120.355H141.844V118.832C141.844 118.077 141.766 117.413 141.609 116.84C141.453 116.254 141.199 115.766 140.848 115.375C140.496 114.984 140.04 114.691 139.48 114.496C138.921 114.301 138.237 114.203 137.43 114.203C136.648 114.203 135.945 114.301 135.32 114.496C134.695 114.678 134.148 114.887 133.68 115.121C133.211 115.355 132.82 115.57 132.508 115.766C132.208 115.948 131.993 116.039 131.863 116.039C131.785 116.039 131.714 116.026 131.648 116C131.583 115.974 131.525 115.928 131.473 115.863C131.434 115.785 131.401 115.694 131.375 115.59C131.362 115.473 131.355 115.336 131.355 115.18C131.355 114.906 131.375 114.691 131.414 114.535C131.453 114.366 131.551 114.203 131.707 114.047C131.876 113.878 132.169 113.682 132.586 113.461C133.003 113.24 133.478 113.038 134.012 112.855C134.559 112.66 135.145 112.504 135.77 112.387C136.395 112.27 137.02 112.211 137.645 112.211C138.855 112.211 139.878 112.361 140.711 112.66C141.544 112.947 142.215 113.363 142.723 113.91C143.243 114.457 143.615 115.134 143.836 115.941C144.057 116.736 144.168 117.641 144.168 118.656V130.609ZM141.844 122.27H138.621C137.684 122.27 136.863 122.354 136.16 122.523C135.457 122.693 134.871 122.94 134.402 123.266C133.934 123.591 133.582 123.982 133.348 124.438C133.126 124.893 133.016 125.414 133.016 126C133.016 127.016 133.335 127.829 133.973 128.441C134.624 129.04 135.535 129.34 136.707 129.34C137.632 129.34 138.491 129.105 139.285 128.637C140.092 128.155 140.945 127.419 141.844 126.43V122.27Z" fill="#515151"/>
<path d="M160.418 113.832C160.418 114.027 160.411 114.197 160.398 114.34C160.385 114.47 160.359 114.581 160.32 114.672C160.294 114.75 160.255 114.815 160.203 114.867C160.164 114.906 160.105 114.926 160.027 114.926C159.91 114.926 159.773 114.9 159.617 114.848C159.461 114.783 159.279 114.717 159.07 114.652C158.862 114.587 158.634 114.529 158.387 114.477C158.139 114.411 157.866 114.379 157.566 114.379C157.215 114.379 156.87 114.457 156.531 114.613C156.193 114.757 155.835 114.997 155.457 115.336C155.092 115.661 154.702 116.098 154.285 116.645C153.882 117.191 153.432 117.862 152.938 118.656V130.609C152.938 130.688 152.918 130.759 152.879 130.824C152.84 130.889 152.775 130.941 152.684 130.98C152.605 131.02 152.488 131.052 152.332 131.078C152.189 131.104 152 131.117 151.766 131.117C151.544 131.117 151.355 131.104 151.199 131.078C151.056 131.052 150.939 131.02 150.848 130.98C150.757 130.941 150.691 130.889 150.652 130.824C150.626 130.759 150.613 130.688 150.613 130.609V112.934C150.613 112.855 150.626 112.784 150.652 112.719C150.691 112.654 150.757 112.602 150.848 112.562C150.939 112.51 151.049 112.478 151.18 112.465C151.323 112.439 151.505 112.426 151.727 112.426C151.948 112.426 152.13 112.439 152.273 112.465C152.417 112.478 152.527 112.51 152.605 112.562C152.684 112.602 152.736 112.654 152.762 112.719C152.801 112.784 152.82 112.855 152.82 112.934V115.727C153.328 114.984 153.797 114.385 154.227 113.93C154.656 113.474 155.066 113.122 155.457 112.875C155.848 112.615 156.225 112.439 156.59 112.348C156.967 112.257 157.352 112.211 157.742 112.211C157.911 112.211 158.107 112.224 158.328 112.25C158.549 112.263 158.784 112.296 159.031 112.348C159.292 112.4 159.52 112.465 159.715 112.543C159.923 112.608 160.066 112.673 160.145 112.738C160.223 112.79 160.275 112.842 160.301 112.895C160.327 112.934 160.346 112.992 160.359 113.07C160.385 113.135 160.398 113.233 160.398 113.363C160.411 113.48 160.418 113.637 160.418 113.832Z" fill="#515151"/>
<path d="M178.738 130.609C178.738 130.688 178.719 130.759 178.68 130.824C178.641 130.889 178.576 130.941 178.484 130.98C178.406 131.02 178.289 131.052 178.133 131.078C177.99 131.104 177.807 131.117 177.586 131.117C177.352 131.117 177.156 131.104 177 131.078C176.857 131.052 176.74 131.02 176.648 130.98C176.57 130.941 176.512 130.889 176.473 130.824C176.434 130.759 176.414 130.688 176.414 130.609V120.121C176.414 119.027 176.329 118.142 176.16 117.465C175.991 116.775 175.737 116.189 175.398 115.707C175.06 115.212 174.624 114.835 174.09 114.574C173.569 114.301 172.957 114.164 172.254 114.164C171.355 114.164 170.457 114.483 169.559 115.121C168.66 115.759 167.716 116.697 166.727 117.934V130.609C166.727 130.688 166.707 130.759 166.668 130.824C166.629 130.889 166.564 130.941 166.473 130.98C166.395 131.02 166.277 131.052 166.121 131.078C165.978 131.104 165.789 131.117 165.555 131.117C165.333 131.117 165.145 131.104 164.988 131.078C164.845 131.052 164.728 131.02 164.637 130.98C164.546 130.941 164.48 130.889 164.441 130.824C164.415 130.759 164.402 130.688 164.402 130.609V112.934C164.402 112.855 164.415 112.784 164.441 112.719C164.48 112.654 164.546 112.602 164.637 112.562C164.728 112.51 164.839 112.478 164.969 112.465C165.112 112.439 165.294 112.426 165.516 112.426C165.737 112.426 165.919 112.439 166.062 112.465C166.206 112.478 166.316 112.51 166.395 112.562C166.473 112.602 166.525 112.654 166.551 112.719C166.59 112.784 166.609 112.855 166.609 112.934V115.434C167.625 114.301 168.621 113.48 169.598 112.973C170.574 112.465 171.544 112.211 172.508 112.211C173.667 112.211 174.643 112.406 175.438 112.797C176.232 113.188 176.87 113.715 177.352 114.379C177.846 115.043 178.198 115.818 178.406 116.703C178.628 117.589 178.738 118.656 178.738 119.906V130.609Z" fill="#515151"/>
<path d="M215.73 118.441C215.73 119.223 215.581 119.965 215.281 120.668C214.995 121.371 214.591 121.983 214.07 122.504C213.549 123.025 212.938 123.435 212.234 123.734C211.531 124.021 210.789 124.164 210.008 124.164C209.227 124.164 208.484 124.021 207.781 123.734C207.078 123.435 206.466 123.025 205.945 122.504C205.424 121.983 205.014 121.371 204.715 120.668C204.428 119.965 204.285 119.223 204.285 118.441C204.285 117.647 204.428 116.905 204.715 116.215C205.014 115.512 205.424 114.9 205.945 114.379C206.466 113.858 207.078 113.454 207.781 113.168C208.484 112.868 209.227 112.719 210.008 112.719C210.789 112.719 211.531 112.868 212.234 113.168C212.938 113.454 213.549 113.858 214.07 114.379C214.591 114.9 214.995 115.512 215.281 116.215C215.581 116.905 215.73 117.647 215.73 118.441Z" fill="#515151"/>
<path d="M254.461 129.906C254.461 130.089 254.448 130.245 254.422 130.375C254.396 130.505 254.357 130.622 254.305 130.727C254.253 130.818 254.188 130.889 254.109 130.941C254.031 130.98 253.94 131 253.836 131H242.879C242.645 131 242.404 130.915 242.156 130.746C241.909 130.564 241.785 130.238 241.785 129.77V106.117C241.785 106.039 241.805 105.967 241.844 105.902C241.883 105.837 241.948 105.785 242.039 105.746C242.13 105.707 242.254 105.674 242.41 105.648C242.566 105.622 242.755 105.609 242.977 105.609C243.211 105.609 243.4 105.622 243.543 105.648C243.699 105.674 243.823 105.707 243.914 105.746C244.005 105.785 244.07 105.837 244.109 105.902C244.148 105.967 244.168 106.039 244.168 106.117V128.832H253.836C253.94 128.832 254.031 128.858 254.109 128.91C254.188 128.949 254.253 129.014 254.305 129.105C254.357 129.184 254.396 129.294 254.422 129.438C254.448 129.568 254.461 129.724 254.461 129.906Z" fill="#515151"/>
<path d="M272.527 120.863C272.527 121.332 272.404 121.658 272.156 121.84C271.909 122.009 271.668 122.094 271.434 122.094H259.383C259.383 123.188 259.487 124.177 259.695 125.062C259.917 125.948 260.275 126.71 260.77 127.348C261.264 127.973 261.909 128.454 262.703 128.793C263.497 129.132 264.474 129.301 265.633 129.301C266.453 129.301 267.189 129.229 267.84 129.086C268.491 128.943 269.051 128.786 269.52 128.617C270.001 128.435 270.392 128.272 270.691 128.129C271.004 127.986 271.225 127.914 271.355 127.914C271.434 127.914 271.505 127.934 271.57 127.973C271.635 128.012 271.688 128.077 271.727 128.168C271.766 128.246 271.792 128.35 271.805 128.48C271.831 128.611 271.844 128.773 271.844 128.969C271.844 129.06 271.837 129.151 271.824 129.242C271.811 129.32 271.792 129.398 271.766 129.477C271.753 129.542 271.727 129.607 271.688 129.672C271.648 129.737 271.596 129.802 271.531 129.867C271.466 129.932 271.264 130.049 270.926 130.219C270.587 130.375 270.145 130.538 269.598 130.707C269.051 130.863 268.413 131.007 267.684 131.137C266.967 131.267 266.193 131.332 265.359 131.332C263.992 131.332 262.781 131.13 261.727 130.727C260.672 130.31 259.786 129.704 259.07 128.91C258.354 128.103 257.807 127.107 257.43 125.922C257.065 124.737 256.883 123.363 256.883 121.801C256.883 120.303 257.072 118.962 257.449 117.777C257.84 116.592 258.393 115.59 259.109 114.77C259.826 113.936 260.685 113.305 261.688 112.875C262.703 112.432 263.829 112.211 265.066 112.211C266.395 112.211 267.527 112.432 268.465 112.875C269.402 113.318 270.171 113.917 270.77 114.672C271.382 115.414 271.824 116.28 272.098 117.27C272.384 118.259 272.527 119.301 272.527 120.395V120.863ZM270.125 120.18C270.164 118.305 269.734 116.84 268.836 115.785C267.938 114.73 266.629 114.203 264.91 114.203C264.025 114.203 263.243 114.372 262.566 114.711C261.902 115.036 261.336 115.473 260.867 116.02C260.411 116.566 260.06 117.204 259.812 117.934C259.565 118.65 259.422 119.398 259.383 120.18H270.125Z" fill="#515151"/>
<path d="M290.262 130.609C290.262 130.74 290.216 130.844 290.125 130.922C290.047 130.987 289.936 131.033 289.793 131.059C289.663 131.098 289.48 131.117 289.246 131.117C289.025 131.117 288.836 131.098 288.68 131.059C288.523 131.033 288.4 130.987 288.309 130.922C288.23 130.844 288.191 130.74 288.191 130.609V128.637C287.397 129.496 286.518 130.16 285.555 130.629C284.604 131.098 283.615 131.332 282.586 131.332C281.661 131.332 280.828 131.215 280.086 130.98C279.357 130.733 278.738 130.388 278.23 129.945C277.723 129.49 277.332 128.943 277.059 128.305C276.785 127.667 276.648 126.951 276.648 126.156C276.648 125.18 276.85 124.333 277.254 123.617C277.658 122.888 278.23 122.283 278.973 121.801C279.715 121.319 280.607 120.961 281.648 120.727C282.69 120.479 283.849 120.355 285.125 120.355H287.938V118.832C287.938 118.077 287.859 117.413 287.703 116.84C287.547 116.254 287.293 115.766 286.941 115.375C286.59 114.984 286.134 114.691 285.574 114.496C285.014 114.301 284.331 114.203 283.523 114.203C282.742 114.203 282.039 114.301 281.414 114.496C280.789 114.678 280.242 114.887 279.773 115.121C279.305 115.355 278.914 115.57 278.602 115.766C278.302 115.948 278.087 116.039 277.957 116.039C277.879 116.039 277.807 116.026 277.742 116C277.677 115.974 277.618 115.928 277.566 115.863C277.527 115.785 277.495 115.694 277.469 115.59C277.456 115.473 277.449 115.336 277.449 115.18C277.449 114.906 277.469 114.691 277.508 114.535C277.547 114.366 277.645 114.203 277.801 114.047C277.97 113.878 278.263 113.682 278.68 113.461C279.096 113.24 279.572 113.038 280.105 112.855C280.652 112.66 281.238 112.504 281.863 112.387C282.488 112.27 283.113 112.211 283.738 112.211C284.949 112.211 285.971 112.361 286.805 112.66C287.638 112.947 288.309 113.363 288.816 113.91C289.337 114.457 289.708 115.134 289.93 115.941C290.151 116.736 290.262 117.641 290.262 118.656V130.609ZM287.938 122.27H284.715C283.777 122.27 282.957 122.354 282.254 122.523C281.551 122.693 280.965 122.94 280.496 123.266C280.027 123.591 279.676 123.982 279.441 124.438C279.22 124.893 279.109 125.414 279.109 126C279.109 127.016 279.428 127.829 280.066 128.441C280.717 129.04 281.629 129.34 282.801 129.34C283.725 129.34 284.585 129.105 285.379 128.637C286.186 128.155 287.039 127.419 287.938 126.43V122.27Z" fill="#515151"/>
<path d="M310.965 130.609C310.965 130.701 310.945 130.779 310.906 130.844C310.88 130.909 310.822 130.961 310.73 131C310.652 131.039 310.548 131.065 310.418 131.078C310.288 131.104 310.125 131.117 309.93 131.117C309.721 131.117 309.546 131.104 309.402 131.078C309.272 131.065 309.161 131.039 309.07 131C308.992 130.961 308.927 130.909 308.875 130.844C308.836 130.779 308.816 130.701 308.816 130.609V128.07C307.879 129.086 306.909 129.887 305.906 130.473C304.904 131.046 303.81 131.332 302.625 131.332C301.349 131.332 300.262 131.085 299.363 130.59C298.465 130.095 297.729 129.424 297.156 128.578C296.596 127.732 296.186 126.742 295.926 125.609C295.665 124.464 295.535 123.253 295.535 121.977C295.535 120.479 295.698 119.132 296.023 117.934C296.349 116.723 296.831 115.694 297.469 114.848C298.107 114.001 298.895 113.35 299.832 112.895C300.77 112.439 301.857 112.211 303.094 112.211C304.161 112.211 305.138 112.452 306.023 112.934C306.909 113.402 307.781 114.099 308.641 115.023V104.379C308.641 104.301 308.654 104.229 308.68 104.164C308.719 104.099 308.784 104.047 308.875 104.008C308.966 103.969 309.083 103.936 309.227 103.91C309.383 103.884 309.572 103.871 309.793 103.871C310.027 103.871 310.216 103.884 310.359 103.91C310.516 103.936 310.633 103.969 310.711 104.008C310.802 104.047 310.867 104.099 310.906 104.164C310.945 104.229 310.965 104.301 310.965 104.379V130.609ZM308.641 117.855C307.664 116.671 306.72 115.766 305.809 115.141C304.91 114.516 303.966 114.203 302.977 114.203C302.078 114.203 301.31 114.418 300.672 114.848C300.034 115.277 299.513 115.844 299.109 116.547C298.706 117.25 298.413 118.044 298.23 118.93C298.048 119.815 297.957 120.714 297.957 121.625C297.957 122.602 298.035 123.552 298.191 124.477C298.348 125.401 298.615 126.228 298.992 126.957C299.37 127.673 299.871 128.253 300.496 128.695C301.121 129.125 301.902 129.34 302.84 129.34C303.309 129.34 303.764 129.275 304.207 129.145C304.65 129.014 305.105 128.799 305.574 128.5C306.043 128.201 306.525 127.816 307.02 127.348C307.527 126.866 308.068 126.273 308.641 125.57V117.855Z" fill="#515151"/>
<path d="M348.035 118.441C348.035 119.223 347.885 119.965 347.586 120.668C347.299 121.371 346.896 121.983 346.375 122.504C345.854 123.025 345.242 123.435 344.539 123.734C343.836 124.021 343.094 124.164 342.312 124.164C341.531 124.164 340.789 124.021 340.086 123.734C339.383 123.435 338.771 123.025 338.25 122.504C337.729 121.983 337.319 121.371 337.02 120.668C336.733 119.965 336.59 119.223 336.59 118.441C336.59 117.647 336.733 116.905 337.02 116.215C337.319 115.512 337.729 114.9 338.25 114.379C338.771 113.858 339.383 113.454 340.086 113.168C340.789 112.868 341.531 112.719 342.312 112.719C343.094 112.719 343.836 112.868 344.539 113.168C345.242 113.454 345.854 113.858 346.375 114.379C346.896 114.9 347.299 115.512 347.586 116.215C347.885 116.905 348.035 117.647 348.035 118.441Z" fill="#515151"/>
<path d="M376.941 127.992C376.941 128.148 376.935 128.292 376.922 128.422C376.909 128.539 376.889 128.643 376.863 128.734C376.837 128.826 376.798 128.91 376.746 128.988C376.707 129.053 376.603 129.171 376.434 129.34C376.264 129.509 375.978 129.724 375.574 129.984C375.184 130.245 374.741 130.473 374.246 130.668C373.751 130.863 373.217 131.02 372.645 131.137C372.072 131.267 371.479 131.332 370.867 131.332C369.643 131.332 368.556 131.13 367.605 130.727C366.668 130.31 365.88 129.704 365.242 128.91C364.604 128.103 364.116 127.12 363.777 125.961C363.452 124.789 363.289 123.441 363.289 121.918C363.289 120.199 363.491 118.728 363.895 117.504C364.311 116.28 364.878 115.277 365.594 114.496C366.31 113.715 367.143 113.142 368.094 112.777C369.057 112.4 370.086 112.211 371.18 112.211C371.766 112.211 372.326 112.27 372.859 112.387C373.393 112.491 373.882 112.634 374.324 112.816C374.78 112.999 375.184 113.207 375.535 113.441C375.887 113.676 376.141 113.878 376.297 114.047C376.466 114.203 376.577 114.327 376.629 114.418C376.694 114.496 376.74 114.587 376.766 114.691C376.805 114.796 376.831 114.913 376.844 115.043C376.857 115.16 376.863 115.303 376.863 115.473C376.863 115.85 376.805 116.117 376.688 116.273C376.583 116.417 376.466 116.488 376.336 116.488C376.154 116.488 375.926 116.371 375.652 116.137C375.392 115.902 375.053 115.648 374.637 115.375C374.22 115.089 373.712 114.828 373.113 114.594C372.527 114.359 371.824 114.242 371.004 114.242C369.311 114.242 368.003 114.893 367.078 116.195C366.167 117.497 365.711 119.379 365.711 121.84C365.711 123.077 365.835 124.164 366.082 125.102C366.329 126.026 366.681 126.801 367.137 127.426C367.605 128.038 368.172 128.5 368.836 128.812C369.5 129.112 370.249 129.262 371.082 129.262C371.863 129.262 372.553 129.138 373.152 128.891C373.751 128.643 374.272 128.37 374.715 128.07C375.158 127.771 375.522 127.497 375.809 127.25C376.108 127.003 376.329 126.879 376.473 126.879C376.551 126.879 376.616 126.905 376.668 126.957C376.733 126.996 376.785 127.068 376.824 127.172C376.863 127.263 376.889 127.38 376.902 127.523C376.928 127.654 376.941 127.81 376.941 127.992Z" fill="#515151"/>
<path d="M395.965 130.609C395.965 130.688 395.945 130.759 395.906 130.824C395.867 130.889 395.802 130.941 395.711 130.98C395.633 131.02 395.516 131.052 395.359 131.078C395.216 131.104 395.034 131.117 394.812 131.117C394.578 131.117 394.383 131.104 394.227 131.078C394.083 131.052 393.966 131.02 393.875 130.98C393.797 130.941 393.738 130.889 393.699 130.824C393.66 130.759 393.641 130.688 393.641 130.609V120.121C393.641 119.027 393.556 118.142 393.387 117.465C393.217 116.775 392.964 116.189 392.625 115.707C392.286 115.212 391.85 114.835 391.316 114.574C390.796 114.301 390.184 114.164 389.48 114.164C388.582 114.164 387.684 114.483 386.785 115.121C385.887 115.759 384.943 116.697 383.953 117.934V130.609C383.953 130.688 383.934 130.759 383.895 130.824C383.855 130.889 383.79 130.941 383.699 130.98C383.621 131.02 383.504 131.052 383.348 131.078C383.204 131.104 383.016 131.117 382.781 131.117C382.56 131.117 382.371 131.104 382.215 131.078C382.072 131.052 381.954 131.02 381.863 130.98C381.772 130.941 381.707 130.889 381.668 130.824C381.642 130.759 381.629 130.688 381.629 130.609V104.281C381.629 104.203 381.642 104.132 381.668 104.066C381.707 104.001 381.772 103.949 381.863 103.91C381.954 103.858 382.072 103.826 382.215 103.812C382.371 103.786 382.56 103.773 382.781 103.773C383.016 103.773 383.204 103.786 383.348 103.812C383.504 103.826 383.621 103.858 383.699 103.91C383.79 103.949 383.855 104.001 383.895 104.066C383.934 104.132 383.953 104.203 383.953 104.281V115.316C384.917 114.249 385.88 113.467 386.844 112.973C387.807 112.465 388.771 112.211 389.734 112.211C390.893 112.211 391.87 112.406 392.664 112.797C393.458 113.188 394.096 113.715 394.578 114.379C395.073 115.043 395.424 115.818 395.633 116.703C395.854 117.589 395.965 118.656 395.965 119.906V130.609Z" fill="#515151"/>
<path d="M414.793 130.609C414.793 130.74 414.747 130.844 414.656 130.922C414.578 130.987 414.467 131.033 414.324 131.059C414.194 131.098 414.012 131.117 413.777 131.117C413.556 131.117 413.367 131.098 413.211 131.059C413.055 131.033 412.931 130.987 412.84 130.922C412.762 130.844 412.723 130.74 412.723 130.609V128.637C411.928 129.496 411.049 130.16 410.086 130.629C409.135 131.098 408.146 131.332 407.117 131.332C406.193 131.332 405.359 131.215 404.617 130.98C403.888 130.733 403.27 130.388 402.762 129.945C402.254 129.49 401.863 128.943 401.59 128.305C401.316 127.667 401.18 126.951 401.18 126.156C401.18 125.18 401.382 124.333 401.785 123.617C402.189 122.888 402.762 122.283 403.504 121.801C404.246 121.319 405.138 120.961 406.18 120.727C407.221 120.479 408.38 120.355 409.656 120.355H412.469V118.832C412.469 118.077 412.391 117.413 412.234 116.84C412.078 116.254 411.824 115.766 411.473 115.375C411.121 114.984 410.665 114.691 410.105 114.496C409.546 114.301 408.862 114.203 408.055 114.203C407.273 114.203 406.57 114.301 405.945 114.496C405.32 114.678 404.773 114.887 404.305 115.121C403.836 115.355 403.445 115.57 403.133 115.766C402.833 115.948 402.618 116.039 402.488 116.039C402.41 116.039 402.339 116.026 402.273 116C402.208 115.974 402.15 115.928 402.098 115.863C402.059 115.785 402.026 115.694 402 115.59C401.987 115.473 401.98 115.336 401.98 115.18C401.98 114.906 402 114.691 402.039 114.535C402.078 114.366 402.176 114.203 402.332 114.047C402.501 113.878 402.794 113.682 403.211 113.461C403.628 113.24 404.103 113.038 404.637 112.855C405.184 112.66 405.77 112.504 406.395 112.387C407.02 112.27 407.645 112.211 408.27 112.211C409.48 112.211 410.503 112.361 411.336 112.66C412.169 112.947 412.84 113.363 413.348 113.91C413.868 114.457 414.24 115.134 414.461 115.941C414.682 116.736 414.793 117.641 414.793 118.656V130.609ZM412.469 122.27H409.246C408.309 122.27 407.488 122.354 406.785 122.523C406.082 122.693 405.496 122.94 405.027 123.266C404.559 123.591 404.207 123.982 403.973 124.438C403.751 124.893 403.641 125.414 403.641 126C403.641 127.016 403.96 127.829 404.598 128.441C405.249 129.04 406.16 129.34 407.332 129.34C408.257 129.34 409.116 129.105 409.91 128.637C410.717 128.155 411.57 127.419 412.469 126.43V122.27Z" fill="#515151"/>
<path d="M435.574 130.609C435.574 130.688 435.555 130.759 435.516 130.824C435.477 130.889 435.411 130.941 435.32 130.98C435.242 131.02 435.125 131.052 434.969 131.078C434.826 131.104 434.643 131.117 434.422 131.117C434.188 131.117 433.992 131.104 433.836 131.078C433.693 131.052 433.576 131.02 433.484 130.98C433.406 130.941 433.348 130.889 433.309 130.824C433.27 130.759 433.25 130.688 433.25 130.609V120.121C433.25 119.027 433.165 118.142 432.996 117.465C432.827 116.775 432.573 116.189 432.234 115.707C431.896 115.212 431.46 114.835 430.926 114.574C430.405 114.301 429.793 114.164 429.09 114.164C428.191 114.164 427.293 114.483 426.395 115.121C425.496 115.759 424.552 116.697 423.562 117.934V130.609C423.562 130.688 423.543 130.759 423.504 130.824C423.465 130.889 423.4 130.941 423.309 130.98C423.23 131.02 423.113 131.052 422.957 131.078C422.814 131.104 422.625 131.117 422.391 131.117C422.169 131.117 421.98 131.104 421.824 131.078C421.681 131.052 421.564 131.02 421.473 130.98C421.382 130.941 421.316 130.889 421.277 130.824C421.251 130.759 421.238 130.688 421.238 130.609V112.934C421.238 112.855 421.251 112.784 421.277 112.719C421.316 112.654 421.382 112.602 421.473 112.562C421.564 112.51 421.674 112.478 421.805 112.465C421.948 112.439 422.13 112.426 422.352 112.426C422.573 112.426 422.755 112.439 422.898 112.465C423.042 112.478 423.152 112.51 423.23 112.562C423.309 112.602 423.361 112.654 423.387 112.719C423.426 112.784 423.445 112.855 423.445 112.934V115.434C424.461 114.301 425.457 113.48 426.434 112.973C427.41 112.465 428.38 112.211 429.344 112.211C430.503 112.211 431.479 112.406 432.273 112.797C433.068 113.188 433.706 113.715 434.188 114.379C434.682 115.043 435.034 115.818 435.242 116.703C435.464 117.589 435.574 118.656 435.574 119.906V130.609Z" fill="#515151"/>
<path d="M456.18 113.52C456.18 113.884 456.121 114.138 456.004 114.281C455.887 114.424 455.737 114.496 455.555 114.496H452.762C453.309 115.056 453.686 115.668 453.895 116.332C454.116 116.983 454.227 117.673 454.227 118.402C454.227 119.405 454.064 120.297 453.738 121.078C453.426 121.859 452.977 122.523 452.391 123.07C451.805 123.604 451.108 124.014 450.301 124.301C449.493 124.587 448.602 124.73 447.625 124.73C446.831 124.73 446.076 124.62 445.359 124.398C444.643 124.177 444.083 123.904 443.68 123.578C443.419 123.839 443.204 124.138 443.035 124.477C442.866 124.815 442.781 125.206 442.781 125.648C442.781 126.143 443.016 126.56 443.484 126.898C443.966 127.237 444.585 127.419 445.34 127.445L450.125 127.641C450.932 127.667 451.688 127.777 452.391 127.973C453.107 128.168 453.732 128.461 454.266 128.852C454.799 129.229 455.223 129.698 455.535 130.258C455.848 130.818 456.004 131.475 456.004 132.23C456.004 133.012 455.841 133.76 455.516 134.477C455.203 135.193 454.708 135.818 454.031 136.352C453.367 136.898 452.514 137.328 451.473 137.641C450.431 137.966 449.188 138.129 447.742 138.129C446.362 138.129 445.184 138.005 444.207 137.758C443.243 137.523 442.449 137.191 441.824 136.762C441.212 136.345 440.763 135.85 440.477 135.277C440.203 134.704 440.066 134.086 440.066 133.422C440.066 132.966 440.118 132.536 440.223 132.133C440.327 131.729 440.483 131.345 440.691 130.98C440.913 130.616 441.18 130.264 441.492 129.926C441.818 129.587 442.189 129.242 442.605 128.891C441.941 128.552 441.453 128.142 441.141 127.66C440.828 127.178 440.672 126.664 440.672 126.117C440.672 125.31 440.828 124.6 441.141 123.988C441.453 123.363 441.831 122.803 442.273 122.309C441.896 121.814 441.603 121.273 441.395 120.688C441.186 120.102 441.082 119.398 441.082 118.578C441.082 117.589 441.245 116.703 441.57 115.922C441.896 115.128 442.345 114.457 442.918 113.91C443.504 113.363 444.201 112.947 445.008 112.66C445.815 112.361 446.701 112.211 447.664 112.211C448.172 112.211 448.647 112.243 449.09 112.309C449.546 112.361 449.962 112.432 450.34 112.523H455.555C455.776 112.523 455.932 112.608 456.023 112.777C456.128 112.947 456.18 113.194 456.18 113.52ZM451.824 118.441C451.824 117.1 451.453 116.052 450.711 115.297C449.982 114.542 448.94 114.164 447.586 114.164C446.896 114.164 446.29 114.281 445.77 114.516C445.249 114.75 444.819 115.069 444.48 115.473C444.142 115.876 443.888 116.345 443.719 116.879C443.549 117.413 443.465 117.979 443.465 118.578C443.465 119.88 443.829 120.909 444.559 121.664C445.301 122.406 446.336 122.777 447.664 122.777C448.367 122.777 448.979 122.66 449.5 122.426C450.034 122.191 450.47 121.879 450.809 121.488C451.147 121.085 451.401 120.622 451.57 120.102C451.74 119.568 451.824 119.014 451.824 118.441ZM453.68 132.367C453.68 131.508 453.328 130.85 452.625 130.395C451.935 129.939 451.004 129.691 449.832 129.652L444.695 129.477C444.227 129.841 443.842 130.186 443.543 130.512C443.243 130.837 443.003 131.15 442.82 131.449C442.651 131.762 442.534 132.061 442.469 132.348C442.404 132.647 442.371 132.947 442.371 133.246C442.371 134.21 442.853 134.939 443.816 135.434C444.793 135.928 446.147 136.176 447.879 136.176C448.973 136.176 449.884 136.065 450.613 135.844C451.355 135.635 451.954 135.355 452.41 135.004C452.866 134.652 453.191 134.249 453.387 133.793C453.582 133.337 453.68 132.862 453.68 132.367Z" fill="#515151"/>
<path d="M474.871 120.863C474.871 121.332 474.747 121.658 474.5 121.84C474.253 122.009 474.012 122.094 473.777 122.094H461.727C461.727 123.188 461.831 124.177 462.039 125.062C462.26 125.948 462.618 126.71 463.113 127.348C463.608 127.973 464.253 128.454 465.047 128.793C465.841 129.132 466.818 129.301 467.977 129.301C468.797 129.301 469.533 129.229 470.184 129.086C470.835 128.943 471.395 128.786 471.863 128.617C472.345 128.435 472.736 128.272 473.035 128.129C473.348 127.986 473.569 127.914 473.699 127.914C473.777 127.914 473.849 127.934 473.914 127.973C473.979 128.012 474.031 128.077 474.07 128.168C474.109 128.246 474.135 128.35 474.148 128.48C474.174 128.611 474.188 128.773 474.188 128.969C474.188 129.06 474.181 129.151 474.168 129.242C474.155 129.32 474.135 129.398 474.109 129.477C474.096 129.542 474.07 129.607 474.031 129.672C473.992 129.737 473.94 129.802 473.875 129.867C473.81 129.932 473.608 130.049 473.27 130.219C472.931 130.375 472.488 130.538 471.941 130.707C471.395 130.863 470.757 131.007 470.027 131.137C469.311 131.267 468.536 131.332 467.703 131.332C466.336 131.332 465.125 131.13 464.07 130.727C463.016 130.31 462.13 129.704 461.414 128.91C460.698 128.103 460.151 127.107 459.773 125.922C459.409 124.737 459.227 123.363 459.227 121.801C459.227 120.303 459.415 118.962 459.793 117.777C460.184 116.592 460.737 115.59 461.453 114.77C462.169 113.936 463.029 113.305 464.031 112.875C465.047 112.432 466.173 112.211 467.41 112.211C468.738 112.211 469.871 112.432 470.809 112.875C471.746 113.318 472.514 113.917 473.113 114.672C473.725 115.414 474.168 116.28 474.441 117.27C474.728 118.259 474.871 119.301 474.871 120.395V120.863ZM472.469 120.18C472.508 118.305 472.078 116.84 471.18 115.785C470.281 114.73 468.973 114.203 467.254 114.203C466.368 114.203 465.587 114.372 464.91 114.711C464.246 115.036 463.68 115.473 463.211 116.02C462.755 116.566 462.404 117.204 462.156 117.934C461.909 118.65 461.766 119.398 461.727 120.18H472.469Z" fill="#515151"/>
</svg>
